<?xml version="1.0" encoding="iso-8859-1"?>
<!-- Generator: Adobe Illustrator 19.0.0, SVG Export Plug-In . SVG Version: 6.00 Build 0)  -->
<svg version="1.1" id="Capa_1" xmlns="http://www.w3.org/2000/svg" xmlns:xlink="http://www.w3.org/1999/xlink" x="0px" y="0px"
	 viewBox="0 0 464 464" style="enable-background:new 0 0 464 464;" xml:space="preserve">
<g>
	<path style="fill:#DBDBDB;" d="M216.386,39.228l15.947-1.293l10.477,129.172l-15.947,1.293L216.386,39.228z"/>
	<path style="fill:#DBDBDB;" d="M61.429,104.11l9.829-12.626l118.049,91.899l-9.829,12.626L61.429,104.11z"/>
	<path style="fill:#DBDBDB;" d="M59.99,68.203l143.29-50.707l5.338,15.083L65.327,83.286L59.99,68.203z"/>
	<path style="fill:#DBDBDB;" d="M234.236,37.386l6.813-14.477l181.684,85.501l-6.813,14.477L234.236,37.386z"/>
	<path style="fill:#DBDBDB;" d="M70.978,97.083l1.447-15.934l331.436,30.105l-1.447,15.934L70.978,97.083z"/>
	<path style="fill:#DBDBDB;" d="M424.962,138.574l15.926-1.537l9.302,96.355l-15.926,1.537L424.962,138.574z"/>
	<path style="fill:#DBDBDB;" d="M302.791,239.222l1.29-15.947l127.578,10.317l-1.29,15.947L302.791,239.222z"/>
	<path style="fill:#DBDBDB;" d="M400.322,385.095l35.227-126.385l15.413,4.296l-35.227,126.385L400.322,385.095z"/>
	<path style="fill:#DBDBDB;" d="M250.012,428.959l142.195-38.036l4.134,15.456l-142.195,38.036L250.012,428.959z"/>
	<path style="fill:#DBDBDB;" d="M100.818,404.673l320.84-159.739l7.131,14.323l-320.84,159.739L100.818,404.673z"/>
	<path style="fill:#DBDBDB;" d="M24.509,307.127l14.73-6.25l46.56,109.736l-14.73,6.25L24.509,307.127z"/>
	<path style="fill:#DBDBDB;" d="M17.136,275.923l22.758-173.711l15.864,2.078L33,278.001L17.136,275.923z"/>
	<path style="fill:#DBDBDB;" d="M39.405,268.875l128.738-43.846l5.158,15.146L44.563,284.02L39.405,268.875z"/>
	<path style="fill:#DBDBDB;" d="M94.32,439.734l1.175-15.957l126.857,9.343l-1.175,15.957L94.32,439.734z"/>
	<path style="fill:#DBDBDB;" d="M234.52,425.205l175.039-281.156l13.582,8.456L248.102,433.661L234.52,425.205z"/>
	<path style="fill:#DBDBDB;" d="M35.063,302.689l9.549-12.838l184.873,137.503l-9.549,12.838L35.063,302.689z"/>
	<path style="fill:#DBDBDB;" d="M20.788,273.965L205.649,31.619l12.722,9.704L33.51,283.669L20.788,273.965z"/>
	<path style="fill:#DBDBDB;" d="M276.2,286.716l10.942-11.674l109.732,102.859l-10.942,11.674L276.2,286.716z"/>
	<path style="fill:#DBDBDB;" d="M81.066,405.848L183.75,265.875l12.901,9.464L93.967,415.312L81.066,405.848z"/>
	<path style="fill:#DBDBDB;" d="M281.6,188.8L400,127.2l7.2,14.4l-117.6,61.6L281.6,188.8z"/>
</g>
<circle style="fill:#FDB62F;" cx="232" cy="232" r="72"/>
<path style="fill:#FFA12E;" d="M180.8,283.2c28,28,73.6,28,101.6,0s28-73.6,0-101.6L180.8,283.2z"/>
<path style="fill:#F46B27;" d="M264,216c0-13.6-10.4-24-24-24v-8h-16v8h-16c-4.8,0-8,3.2-8,8v64c0,4.8,3.2,8,8,8h16v8h16v-8
	c13.6,0,24-10.4,24-24c0-5.6-2.4-11.2-6.4-16C261.6,228,264,221.6,264,216z M240,256h-24v-16h24c4.8,0,8,3.2,8,8S244.8,256,240,256z
	 M240,224h-24v-16h24c4.8,0,8,3.2,8,8S244.8,224,240,224z"/>
<g>
	<circle style="fill:#4398D1;" cx="224" cy="24" r="24"/>
	<circle style="fill:#4398D1;" cx="24" cy="288" r="24"/>
</g>
<g>
	<circle style="fill:#87CED9;" cx="232" cy="440" r="24"/>
	<circle style="fill:#87CED9;" cx="424" cy="128" r="24"/>
	<circle style="fill:#87CED9;" cx="56" cy="88" r="24"/>
</g>
<circle style="fill:#4398D1;" cx="408" cy="400" r="24"/>
<circle style="fill:#87CED9;" cx="440" cy="248" r="24"/>
<circle style="fill:#4398D1;" cx="88" cy="424" r="24"/>
<g>
</g>
<g>
</g>
<g>
</g>
<g>
</g>
<g>
</g>
<g>
</g>
<g>
</g>
<g>
</g>
<g>
</g>
<g>
</g>
<g>
</g>
<g>
</g>
<g>
</g>
<g>
</g>
<g>
</g>
</svg>
