<?xml version="1.0" encoding="iso-8859-1"?>
<!-- Generator: Adobe Illustrator 16.0.0, SVG Export Plug-In . SVG Version: 6.00 Build 0)  -->
<!DOCTYPE svg PUBLIC "-//W3C//DTD SVG 1.1//EN" "http://www.w3.org/Graphics/SVG/1.1/DTD/svg11.dtd">
<svg xmlns="http://www.w3.org/2000/svg" xmlns:xlink="http://www.w3.org/1999/xlink" version="1.1" id="Capa_1" x="0px" y="0px" width="512px" height="512px" viewBox="0 0 64 64" style="enable-background:new 0 0 64 64;" xml:space="preserve">
<g>
	<g>
		<g id="circle_26_">
			<g>
				<path d="M32,0C14.327,0,0,14.327,0,32s14.327,32,32,32s32-14.327,32-32S49.673,0,32,0z M46.363,33.363      c-2.533,2.535-6.195,3.209-9.363,2.086v-2.102c2.551,1.267,5.652,0.899,7.95-1.398c2.929-2.929,2.733-7.166,0-9.899      c-2.733-2.733-7.165-2.733-9.899,0c-1.367,1.367-2.05,3.158-2.05,4.95H33v11h-0.098c-0.217,1.959-1.037,3.861-2.54,5.364      c-3.515,3.515-9.213,3.515-12.728,0c-3.515-3.515-3.515-9.214,0-12.729c2.534-2.535,6.196-3.209,9.364-2.086v2.155      c-2.601-1.238-5.797-0.809-7.95,1.345c-2.733,2.733-2.733,7.166,0,9.899c2.733,2.732,6.971,2.929,9.899,0      c1.168-1.167,1.795-2.545,2.004-3.95H31V26h0.104c0.207-1.957,1.028-3.86,2.533-5.364c3.514-3.515,9.213-3.515,12.727,0      C49.879,24.151,49.879,29.849,46.363,33.363z" fill="#38454f"/>
			</g>
		</g>
	</g>
</g>
<g>
</g>
<g>
</g>
<g>
</g>
<g>
</g>
<g>
</g>
<g>
</g>
<g>
</g>
<g>
</g>
<g>
</g>
<g>
</g>
<g>
</g>
<g>
</g>
<g>
</g>
<g>
</g>
<g>
</g>
</svg>
