<?xml version="1.0" encoding="UTF-8"?>
<svg width="16px" height="26px" viewBox="0 0 16 26" version="1.1" xmlns="http://www.w3.org/2000/svg" xmlns:xlink="http://www.w3.org/1999/xlink">
    <!-- Generator: Sketch 49.3 (51167) - http://www.bohemiancoding.com/sketch -->
    <title>phone-message</title>
    <desc>Created with Sketch.</desc>
    <defs></defs>
    <g id="ivory_web_&amp;_mobile" stroke="none" stroke-width="1" fill="none" fill-rule="evenodd">
        <g id="mobile_opened_burger" transform="translate(-159.000000, -328.000000)" fill="#FFFFFF" fill-rule="nonzero">
            <g id="menu_section" transform="translate(117.000000, 0.000000)">
                <g id="contact" transform="translate(42.000000, 328.000000)">
                    <g id="phone-message">
                        <ellipse id="Oval" cx="8" cy="12.5666667" rx="1.26315789" ry="1.3"></ellipse>
                        <ellipse id="Oval" cx="11.3684211" cy="12.5666667" rx="1.26315789" ry="1.3"></ellipse>
                        <ellipse id="Oval" cx="4.63157895" cy="12.5666667" rx="1.26315789" ry="1.3"></ellipse>
                        <path d="M13.969355,0 L2.01964821,0 C0.903452769,0 0,0.890486922 0,2.01078873 L0,23.9875895 C0,25.1077867 0.903452769,26 2.01964821,26 L13.969355,26 C15.0853941,26 16,25.1077867 16,23.9875895 L16,2.01078873 C16,0.890486922 15.0853941,0 13.969355,0 Z M7.99442345,24.8691308 C7.28896417,24.8691308 6.71786319,24.2953521 6.71786319,23.5876499 C6.71786319,22.88 7.28896417,22.306169 7.99442345,22.306169 C8.69899674,22.306169 9.27119218,22.8799477 9.27119218,23.5876499 C9.27119218,24.2953521 8.69894463,24.8691308 7.99442345,24.8691308 Z M13.7068404,21.0062736 C13.7068404,21.2402213 13.5410033,21.4486922 13.3079349,21.4486922 L2.6810684,21.4486922 C2.44784365,21.4486922 2.24104235,21.2402213 2.24104235,21.0062736 L2.24104235,2.56400805 C2.24104235,2.33006036 2.44789577,2.14486922 2.6810684,2.14486922 L13.3078827,2.14486922 C13.5410033,2.14486922 13.7067883,2.33011268 13.7067883,2.56400805 L13.7067883,21.0062736 L13.7068404,21.0062736 Z" id="Shape"></path>
                    </g>
                </g>
            </g>
        </g>
    </g>
</svg>