<?xml version="1.0" encoding="UTF-8"?>
<svg width="30px" height="19px" viewBox="0 0 30 19" version="1.1" xmlns="http://www.w3.org/2000/svg" xmlns:xlink="http://www.w3.org/1999/xlink">
    <!-- Generator: Sketch 49.3 (51167) - http://www.bohemiancoding.com/sketch -->
    <title>hand-shake</title>
    <desc>Created with Sketch.</desc>
    <defs></defs>
    <g id="ivory_web_&amp;_mobile" stroke="none" stroke-width="1" fill="none" fill-rule="evenodd">
        <g id="mobile_opened_burger" transform="translate(-152.000000, -188.000000)" fill="#FFFFFF" fill-rule="nonzero">
            <g id="menu_section" transform="translate(117.000000, 0.000000)">
                <g id="for_business" transform="translate(35.000000, 188.000000)">
                    <g id="hand-shake">
                        <path d="M23.5370792,12.8299838 C22.9529586,11.5970125 20.8632509,9.88560189 18.844291,8.23198777 C17.7181963,7.31036393 16.6541295,6.43900298 15.9757752,5.75221401 C15.8058524,5.57894237 15.5516367,5.52367672 15.3271851,5.60530979 C14.9092668,5.75851158 14.6512725,5.87651757 14.4479232,5.96815614 C14.1378998,6.10876278 14.0337254,6.15649488 13.615749,6.19916537 C13.4309441,6.21799925 13.2647999,6.31846619 13.1618463,6.47413993 C12.285026,7.80128062 11.3772207,7.68827737 10.770777,7.48239959 C10.5773103,7.41712845 10.5426049,7.33296457 10.5240024,7.25262633 C10.3937844,6.70144124 11.047374,5.41820703 11.8943721,4.56061836 C13.9096695,2.51902644 14.9489135,2.00798104 17.1440164,3.00117361 C19.6342607,4.12867523 22.1295043,5.01139535 22.1543271,5.02016488 C22.4805115,5.13440409 22.8314606,4.96113245 22.9442968,4.63342305 C23.0559122,4.30571365 22.8859893,3.94787004 22.5623047,3.83363083 C22.5374819,3.82486131 20.0918838,2.95973908 17.651227,1.85354328 C14.807534,0.566542287 13.24736,1.41406661 11.0187725,3.67165951 C10.1704955,4.53048416 9.01835711,6.26820329 9.31599818,7.54266799 C9.44371643,8.08508355 9.82076721,8.48689248 10.3812858,8.67393639 C11.7864191,9.14354726 13.0687172,8.69400623 14.0236684,7.41083087 C14.4180428,7.3493265 14.6326118,7.25892391 14.9550175,7.11201969 C15.0715742,7.05928485 15.2080124,6.99778048 15.3890968,6.92368096 C16.098494,7.59793364 17.0558868,8.38265876 18.0641459,9.20758243 C19.8871974,10.7004612 21.9545821,12.3930379 22.4196463,13.3723993 C22.6490973,13.8557825 22.4022645,14.1709556 22.2348414,14.315329 C21.9892875,14.5287992 21.6532205,14.5966011 21.4709153,14.467236 C21.2700076,14.3278653 21.0083509,14.3190958 20.8012229,14.4446353 C20.5928742,14.5701749 20.4763175,14.8074817 20.5023611,15.051086 C20.5445075,15.4503642 20.1836177,15.6789015 20.0273562,15.7580037 C19.630482,15.9614096 19.2162842,15.9262726 19.0612435,15.7806044 C18.8876001,15.6173971 18.6383257,15.569665 18.4175947,15.652534 C18.1968636,15.7366391 18.0430436,15.9425757 18.0207205,16.1811185 C17.9835154,16.5929329 17.6821538,16.9884442 17.2890002,17.142882 C17.099254,17.2156867 16.823936,17.259652 16.5771613,17.0311147 C16.4233995,16.8905081 16.2100513,16.8364784 16.0104225,16.8854465 C15.808294,16.9356505 15.6458122,17.0838496 15.5751225,17.2809578 C15.5515786,17.343757 15.4982125,17.494428 14.9178124,17.494428 C14.5048354,17.494428 13.7619535,17.2119199 13.3986221,16.9683155 C12.9633221,16.6782739 10.2336861,14.6166121 7.87615951,12.6176907 C7.54503382,12.3351826 6.97207476,11.7299678 6.46608495,11.1950858 C6.01712362,10.7204722 5.60664636,10.2898239 5.39579789,10.1090187 C5.13164144,9.88301223 4.74098754,9.9169132 4.52147725,10.1831182 C4.30074617,10.4480284 4.33295186,10.8448346 4.59466672,11.0683103 C4.78691263,11.2328124 5.15896396,11.6307957 5.56944123,12.0639748 C6.12257692,12.6490609 6.69425705,13.2542756 7.07874886,13.5807491 C9.38796686,15.538236 12.1634698,17.6513966 12.7165474,18.0192457 C13.1729497,18.3231185 14.1563861,18.75 14.9178705,18.75 C15.5292555,18.75 15.9993191,18.6080985 16.3254454,18.330652 C16.7619662,18.5026877 17.2580734,18.5039237 17.7355199,18.3155849 C18.2998172,18.0945812 18.7636024,17.6488658 19.0265381,17.108981 C19.5151461,17.2144507 20.074502,17.1403512 20.5829334,16.8817386 C21.0802614,16.6281287 21.4398723,16.2401509 21.618457,15.7868431 C22.1120644,15.8132105 22.6204958,15.6361721 23.0409138,15.270795 C23.752869,14.6543387 23.9487772,13.695106 23.5370792,12.8299838 Z" id="Shape"></path>
                        <path d="M12.499984,2.5 L6.87501598,2.5 C6.53001794,2.5 6.25,2.78001078 6.25,3.125 C6.25,3.46998922 6.53001794,3.75 6.87501598,3.75 L12.499984,3.75 C12.8449821,3.75 13.125,3.46998922 13.125,3.125 C13.125,2.78001078 12.8449821,2.5 12.499984,2.5 Z" id="Shape"></path>
                        <path d="M25.5170812,11.5297579 C25.3203224,11.2410579 24.9268642,11.1616284 24.636218,11.3583109 L22.7805446,12.5963819 C22.4898984,12.790523 22.4124324,13.1826468 22.6079418,13.4713469 C22.7310425,13.6516588 22.9316092,13.75 23.1359838,13.75 C23.2565856,13.75 23.3796863,13.7159588 23.4888646,13.642853 L25.344538,12.404782 C25.6351247,12.2105817 25.7125311,11.818517 25.5170812,11.5297579 Z" id="Shape"></path>
                        <path d="M21.6369477,14.5088584 C21.1895494,14.1564172 19.1886475,12.108029 17.9513748,10.8182445 C17.7126492,10.5682667 17.316511,10.5595377 17.0677676,10.7994976 C16.817794,11.0382273 16.8102954,11.434372 17.0490211,11.6831195 C17.3702316,12.018044 20.203422,14.9713202 20.8620705,15.4912528 C20.9757801,15.5812378 21.1132744,15.625 21.2482496,15.625 C21.4319658,15.625 21.6156821,15.5425138 21.7406396,15.3862704 C21.9544089,15.1162569 21.9081869,14.7225726 21.6369477,14.5088584 Z" id="Shape"></path>
                        <path d="M19.1409762,15.7623818 C18.3921987,15.1635591 16.5109677,13.1646318 16.0859241,12.7021103 C15.8509021,12.4470877 15.4571479,12.4320864 15.2021452,12.664607 C14.948373,12.8983582 14.9309119,13.2946629 15.1646448,13.5484549 C15.1871451,13.5721875 17.4321885,15.9961916 18.3596788,16.7387574 C18.4746995,16.829996 18.613451,16.875 18.7496829,16.875 C18.9322044,16.875 19.1146673,16.7937233 19.2384186,16.6412488 C19.4535185,16.3711662 19.4097485,15.9773813 19.1409762,15.7623818 Z" id="Shape"></path>
                        <path d="M16.6529096,17.0215574 C15.7616981,16.2705228 13.9380863,14.3297596 13.5818595,13.9485895 C13.3456249,13.6961749 12.9493812,13.6824089 12.6981475,13.9185973 C12.4456835,14.1547857 12.4331452,14.5496632 12.6681495,14.8021364 C13.1806356,15.3507237 14.9255025,17.2002803 15.846712,17.977558 C15.9641849,18.0762627 16.1066756,18.125 16.2491663,18.125 C16.4266352,18.125 16.6041627,18.0487894 16.7279047,17.9025776 C16.9503707,17.6376271 16.9166229,17.2439798 16.6529096,17.0215574 Z" id="Shape"></path>
                        <path d="M7.3051937,1.42091469 C6.23389576,0.405862648 1.95005171,0.077082587 0.662537098,0.000849676667 C0.485051924,-0.00788107171 0.32127805,0.0508317462 0.196294267,0.169605082 C0.0712518892,0.287089313 0,0.452094598 0,0.624600123 L0,11.8749604 C0,12.2199715 0.280026956,12.5 0.625036104,12.5 L4.37513554,12.5 C4.6451427,12.5 4.88514906,12.326264 4.96888175,12.0687362 C5.06011464,11.7887077 7.21396081,5.17853504 7.49767927,1.92841141 C7.51396876,1.7383858 7.44394738,1.55087979 7.3051937,1.42091469 Z M3.91885391,11.2499795 L1.25001361,11.2499795 L1.25001361,1.29464111 C3.25883641,1.45337667 5.42639388,1.79838772 6.21391476,2.18089997 C5.88267551,4.91848765 4.38386624,9.78239343 3.91885391,11.2499795 Z" id="Shape"></path>
                        <path d="M29.3733873,1.25 C24.4533582,1.25 21.7239184,2.50625196 21.609898,2.55875204 C21.4470034,2.63498263 21.3254051,2.77625238 21.2752973,2.94752218 C21.2251894,3.11879198 21.250214,3.30254227 21.3442029,3.45500345 C22.1186721,4.69877492 24.5435876,11.6062857 25.0097729,13.2912688 C25.0849641,13.5624997 25.3318614,13.75 25.6138283,13.75 L29.3733873,13.75 C29.7192667,13.75 30,13.46998 30,13.1249795 L30,1.87496191 C30,1.5287309 29.7192667,1.25 29.3733873,1.25 Z M28.7468333,12.5000176 L26.0825396,12.5000176 C25.4885293,10.569995 23.7340488,5.53748717 22.7553299,3.45752298 C23.7114915,3.13379201 25.765503,2.57750207 28.7468333,2.50754103 L28.7468333,12.5000176 Z" id="Shape"></path>
                    </g>
                </g>
            </g>
        </g>
    </g>
</svg>