<?xml version="1.0" encoding="iso-8859-1"?>
<!-- Generator: Adobe Illustrator 21.0.0, SVG Export Plug-In . SVG Version: 6.00 Build 0)  -->
<svg version="1.1" id="Capa_1" xmlns="http://www.w3.org/2000/svg" xmlns:xlink="http://www.w3.org/1999/xlink" x="0px" y="0px"
	 viewBox="0 0 511.999 511.999" style="enable-background:new 0 0 511.999 511.999;" xml:space="preserve">
<path style="fill:#FFD164;" d="M188.519,56.389l-13.682-13.682c-6.195-6.195-14.597-9.675-23.357-9.675H33.032
	C14.789,33.031,0,47.82,0,66.064v379.871c0,18.243,14.789,33.032,33.032,33.032h445.935c18.243,0,33.032-14.789,33.032-33.032
	V99.096c0-18.243-14.789-33.032-33.032-33.032H211.876C203.115,66.064,194.713,62.583,188.519,56.389z"/>
<path style="fill:#FFC350;" d="M478.968,90.838H33.032C20.336,90.838,8.777,95.679,0,103.56v342.375
	c0,18.243,14.789,33.032,33.032,33.032h445.935c18.243,0,33.032-14.789,33.032-33.032V103.56
	C503.223,95.679,491.664,90.838,478.968,90.838z"/>
<path style="fill:#FFE17D;" d="M478.968,478.967H33.032C14.789,478.967,0,464.178,0,445.934V140.386
	c0-18.243,14.789-33.032,33.032-33.032h445.935c18.243,0,33.032,14.789,33.032,33.032v305.548
	C512,464.178,497.211,478.967,478.968,478.967z"/>
<path style="fill:#C9C6CA;" d="M256,429.418L256,429.418c-50.169,0-90.839-40.67-90.839-90.839v-49.548
	c0-13.682,11.092-24.774,24.774-24.774h132.129c13.682,0,24.774,11.092,24.774,24.774v49.548
	C346.839,388.749,306.169,429.418,256,429.418z"/>
<path style="fill:#6F6571;" d="M256,156.902c-36.486,0-66.065,29.578-66.065,66.065v41.29h33.032v-41.29
	c0-18.243,14.789-33.032,33.032-33.032s33.032,14.789,33.032,33.032v41.29h33.032v-41.29
	C322.065,186.48,292.486,156.902,256,156.902z"/>
<path style="fill:#FFD164;" d="M132.129,462.451c-63.851,0-115.613-51.762-115.613-115.613V111.76
	C6.684,117.482,0,128.191,0,140.386v305.548c0,18.243,14.789,33.032,33.032,33.032h445.935c12.196,0,22.891-6.684,28.613-16.516
	L132.129,462.451L132.129,462.451z"/>
<path style="fill:#5D5360;" d="M305.548,235.354v-10.31c0-27.13-20.906-50.789-48.025-51.603
	c-28.06-0.842-51.072,21.654-51.072,49.525v12.387c0,6.841-5.546,12.387-12.387,12.387h-4.129v16.516h33.032v-39.871
	c0-17.252,12.613-32.659,29.788-34.296c19.702-1.879,36.277,13.563,36.277,32.877v41.29h33.032V247.74h-4.129
	C311.094,247.741,305.548,242.195,305.548,235.354z"/>
<path style="fill:#B7B2B8;" d="M272.516,421.16c-50.169,0-90.839-40.67-90.839-90.839v-64.664
	c-9.6,3.413-16.516,12.602-16.516,23.373v49.548c0,50.169,40.67,90.839,90.839,90.839c17.922,0,34.642-5.202,48.718-14.161
	C294.713,419.05,283.85,421.16,272.516,421.16z"/>
<path style="fill:#5D5360;" d="M272.516,330.322c0-10.289-9.407-18.379-20.089-16.141c-5.987,1.254-10.982,6.055-12.435,11.997
	c-1.624,6.64,0.786,12.758,5.242,16.585c1.689,1.45,2.508,3.669,2.508,5.895v14.695c0,4.56,3.697,8.258,8.258,8.258
	s8.258-3.698,8.258-8.258v-14.706c0-2.312,0.97-4.52,2.701-6.053C270.358,339.585,272.516,335.222,272.516,330.322z"/>
<path style="fill:#4B3F4E;" d="M252.427,330.696c7.524-1.577,14.408,2.09,17.825,7.921c1.432-2.426,2.264-5.267,2.264-8.296
	c0-10.289-9.407-18.38-20.089-16.142c-5.988,1.255-10.982,6.055-12.435,11.997c-1.107,4.528-0.323,8.838,1.69,12.319
	C243.987,334.624,247.97,331.63,252.427,330.696z"/>
<g>
</g>
<g>
</g>
<g>
</g>
<g>
</g>
<g>
</g>
<g>
</g>
<g>
</g>
<g>
</g>
<g>
</g>
<g>
</g>
<g>
</g>
<g>
</g>
<g>
</g>
<g>
</g>
<g>
</g>
</svg>
